# xmcd
#
# Track frame offsets:
#	150
#	16472
#	38337
#	65110
#	89420
#	108740
#	137505
#	155847
#	175432
#	191797
#
# Disc length: 3003 seconds
#
# Revision: 0
# Processed by: cddbd v1.5PL3 Copyright (c) Steve Scherf et al.
# Submitted via: dBpowerAMP V4.0
#
DISCID=8d0bb90a
DTITLE=Jone Lennon - Forever
DYEAR=1900
DGENRE=Blues
TTITLE0=Instant karma
TTITLE1=Imagine
TTITLE2=Whatever gets you thru night
TTITLE3=Woman
TTITLE4=I`m losing you
TTITLE5=Watching the wheels
TTITLE6=Oh, my love
TTITLE7=Happy x`mas (war is over)
TTITLE8=It`s only love
TTITLE9=Come together
EXTD=Jone Lennon, Forever
EXTT0=
EXTT1=
EXTT2=
EXTT3=
EXTT4=
EXTT5=
EXTT6=
EXTT7=
EXTT8=
EXTT9=
PLAYORDER=
